<?xml version="1.0" encoding="utf-8"?><svg version="1.1" id="Layer_1" xmlns="http://www.w3.org/2000/svg" xmlns:xlink="http://www.w3.org/1999/xlink" x="0px" y="0px" viewBox="0 0 122.88 122.88" style="enable-background:new 0 0 122.88 122.88" xml:space="preserve"><style type="text/css"><![CDATA[
	.st0{fill-rule:evenodd;clip-rule:evenodd;}
]]></style><g><path class="st0" d="M61.44,0c33.93,0,61.44,27.51,61.44,61.44c0,33.93-27.51,61.44-61.44,61.44C27.51,122.88,0,95.37,0,61.44 C0,27.51,27.51,0,61.44,0L61.44,0z M61.44,29L30.06,59.74l7.65,4.02l23.52-24.69l23.92,24.7l7.66-4.02L61.44,29L61.44,29L61.44,29z M39.39,67.13L39.39,67.13l22.08-22.09l22.02,22.09l0,0l0,0v21.67H67.4v-15.3H55.34v15.3H39.39V67.13L39.39,67.13L39.39,67.13 L39.39,67.13z M61.44,9.09c28.91,0,52.35,23.44,52.35,52.35c0,28.91-23.44,52.35-52.35,52.35S9.09,90.35,9.09,61.44 C9.09,32.53,32.53,9.09,61.44,9.09L61.44,9.09z"/></g></svg>